<svg xmlns="http://www.w3.org/2000/svg" viewBox="0 0 240 258" fill="none">
  <g stroke="#F4EFEA" stroke-linecap="round" stroke-linejoin="round">
    <path stroke-width="2.8" d="M7 185h54M9 211l74-27m-44 40 104-40m-51 30 91-34m-47 35 77-29"/>
    <path stroke-width="3.2" d="M57 186v-59h70v59M63 127v-9h58v9M58 117q13 1 15-9 12 8 27 7 15 1 23-7 1 10 14 10M56 125q36 5 74 0"/>
    <path stroke-width="3.2" d="M77 186v-34q13-27 27 0v34"/>
    <path stroke-width="3.2" d="M141 137v-34l23-13 22 13v34l-22-12-23 12Z"/>
    <path stroke-width="3.2" d="m141 103 23-13 22 13m-22 22v-35m22 47 22-11v-35l-22 12m-22-33 20-11 20 11v34m-20-34v23m20-23v34m-62 0v-28l21-12m43 57 19 10v-37l-19-10m-43 48v-30l21-12"/>
    <path stroke-width="2.8" d="M148 112v8m0 9v8m21-19v8m0 9v8m21-31v8m0 9v8m21-19v8m0 9v8"/>
  </g>
  <path d="m24 225 194-79" stroke="#D68257" stroke-width="4" stroke-linecap="round"/>
  <path d="m203 145 15 1-7 13" stroke="#D68257" stroke-width="4" stroke-linecap="round" stroke-linejoin="round"/>
</svg>
